<?xml version="1.0" encoding="UTF-8" standalone="no"?>
<!-- Created with Inkscape (http://www.inkscape.org/) -->

<svg
   xmlns:dc="http://purl.org/dc/elements/1.1/"
   xmlns:cc="http://creativecommons.org/ns#"
   xmlns:rdf="http://www.w3.org/1999/02/22-rdf-syntax-ns#"
   xmlns:svg="http://www.w3.org/2000/svg"
   xmlns="http://www.w3.org/2000/svg"
   xmlns:sodipodi="http://sodipodi.sourceforge.net/DTD/sodipodi-0.dtd"
   xmlns:inkscape="http://www.inkscape.org/namespaces/inkscape"
   width="7in"
   height="8in"
   viewBox="0 0 177.8 203.2"
   version="1.1"
   id="svg6533"
   inkscape:version="0.92.2 (unknown)"
   sodipodi:docname="mining-king.svg">
  <defs
     id="defs6527" />
  <sodipodi:namedview
     id="base"
     pagecolor="#ffffff"
     bordercolor="#666666"
     borderopacity="1.0"
     inkscape:pageopacity="0.0"
     inkscape:pageshadow="2"
     inkscape:zoom="0.63847656"
     inkscape:cx="498.42676"
     inkscape:cy="581.59619"
     inkscape:document-units="in"
     inkscape:current-layer="layer1"
     showgrid="false"
     inkscape:window-width="1855"
     inkscape:window-height="1056"
     inkscape:window-x="1985"
     inkscape:window-y="24"
     inkscape:window-maximized="1"
     units="in" />
  <metadata
     id="metadata6530">
    <rdf:RDF>
      <cc:Work
         rdf:about="">
        <dc:format>image/svg+xml</dc:format>
        <dc:type
           rdf:resource="http://purl.org/dc/dcmitype/StillImage" />
        <dc:title></dc:title>
      </cc:Work>
    </rdf:RDF>
  </metadata>
  <g
     inkscape:label="Layer 1"
     inkscape:groupmode="layer"
     id="layer1"
     transform="translate(0,-93.8)">
    <g
       aria-label="Mining"
       style="font-style:normal;font-variant:normal;font-weight:normal;font-stretch:normal;font-size:39.54902267px;line-height:125%;font-family:'Faster One';-inkscape-font-specification:'Faster One, Normal';font-variant-ligatures:normal;font-variant-caps:normal;font-variant-numeric:normal;font-feature-settings:normal;text-align:start;letter-spacing:0px;word-spacing:0px;writing-mode:lr-tb;text-anchor:start;display:inline;fill:#000000;fill-opacity:1;stroke:none;stroke-width:0.9887256px;stroke-linecap:butt;stroke-linejoin:miter;stroke-opacity:1"
       id="text6463">
      <path
         d="M 16.715164,253.25263 0.02547646,251.47292 H 17.110654 Z m 0.870079,-3.83626 -16.65013902,-1.7797 H 18.020282 Z m 0.909627,-3.7967 -16.6501385,-1.77971 H 18.89036 Z m 0.870079,-3.79671 -16.61059,-1.7797 h 17.045629 z m 0.909627,-3.7967 -16.6105895,-1.77971 H 20.670066 Z m 0.870079,-3.79671 -16.5710409,-1.77971 H 21.579694 Z m 0.909627,-3.79671 -16.5710404,-1.7797 H 22.449772 Z m 3.678059,22.93844 h -7.830706 l 5.774157,-24.71814 h 9.808158 l 0.711882,12.57659 h 0.276843 l 5.141373,-12.57659 h 9.808158 l -2.926628,24.71814 h -7.870255 l 1.661059,-11.98336 h -0.276844 l -4.943627,11.98336 h -5.734609 l -0.830529,-11.98336 h -0.197745 z"
         style="font-style:normal;font-variant:normal;font-weight:normal;font-stretch:normal;font-size:39.54902267px;font-family:'Faster One';-inkscape-font-specification:'Faster One, Normal';font-variant-ligatures:normal;font-variant-caps:normal;font-variant-numeric:normal;font-feature-settings:normal;text-align:start;writing-mode:lr-tb;text-anchor:start;stroke-width:0.9887256px"
         id="path7131" />
      <path
         d="m 58.456685,253.37128 3.63851,-20.92144 h 6.960628 l -3.678059,20.92144 z m -1.305118,-0.11865 -16.768785,-1.77971 h 17.085177 z m 1.344667,-7.63296 -16.768786,-1.77971 h 17.085178 z m 0.672333,-3.79671 -16.768785,-1.7797 h 17.085177 z m 0.672334,-3.7967 -16.768786,-1.77971 h 17.085178 z m 0.672333,-3.79671 -16.768786,-1.77971 h 17.045629 z m -2.689333,15.18682 -16.768786,-1.7797 h 17.085178 z"
         style="font-style:normal;font-variant:normal;font-weight:normal;font-stretch:normal;font-size:39.54902267px;font-family:'Faster One';-inkscape-font-specification:'Faster One, Normal';font-variant-ligatures:normal;font-variant-caps:normal;font-variant-numeric:normal;font-feature-settings:normal;text-align:start;writing-mode:lr-tb;text-anchor:start;stroke-width:0.9887256px"
         id="path7133" />
      <path
         d="m 90.027929,253.37128 -4.07355,-7.83071 h -0.158196 l -1.384216,7.83071 h -6.644236 l 3.638511,-20.92144 h 5.378667 l 4.113098,7.79116 h 0.237294 l 1.344667,-7.79116 h 6.604687 l -3.678059,20.92144 z m -13.565315,-0.11865 -16.768786,-1.77971 h 17.085178 z m 1.344667,-7.63296 -16.768786,-1.77971 h 17.085178 z m 0.672333,-3.79671 -16.768786,-1.7797 h 17.085178 z m 0.672333,-3.7967 -16.768785,-1.77971 h 17.085177 z m 0.672334,-3.79671 -16.768786,-1.77971 h 17.045629 z m -2.689334,15.18682 -16.768785,-1.7797 h 17.085177 z"
         style="font-style:normal;font-variant:normal;font-weight:normal;font-stretch:normal;font-size:39.54902267px;font-family:'Faster One';-inkscape-font-specification:'Faster One, Normal';font-variant-ligatures:normal;font-variant-caps:normal;font-variant-numeric:normal;font-feature-settings:normal;text-align:start;writing-mode:lr-tb;text-anchor:start;stroke-width:0.9887256px"
         id="path7135" />
      <path
         d="m 108.20194,253.37128 3.63851,-20.92144 h 6.96063 l -3.67806,20.92144 z m -1.30512,-0.11865 -16.768784,-1.77971 h 17.085174 z m 1.34467,-7.63296 -16.768787,-1.77971 h 17.085177 z m 0.67233,-3.79671 -16.768784,-1.7797 h 17.085174 z m 0.67234,-3.7967 -16.76879,-1.77971 h 17.08518 z m 0.67233,-3.79671 -16.768787,-1.77971 h 17.045627 z m -2.68933,15.18682 -16.768791,-1.7797 h 17.085181 z"
         style="font-style:normal;font-variant:normal;font-weight:normal;font-stretch:normal;font-size:39.54902267px;font-family:'Faster One';-inkscape-font-specification:'Faster One, Normal';font-variant-ligatures:normal;font-variant-caps:normal;font-variant-numeric:normal;font-feature-settings:normal;text-align:start;writing-mode:lr-tb;text-anchor:start;stroke-width:0.9887256px"
         id="path7137" />
      <path
         d="m 139.77319,253.37128 -4.07355,-7.83071 h -0.1582 l -1.38421,7.83071 h -6.64424 l 3.63851,-20.92144 h 5.37867 l 4.1131,7.79116 h 0.23729 l 1.34467,-7.79116 h 6.60468 l -3.67806,20.92144 z m -13.56532,-0.11865 -16.76878,-1.77971 h 17.08517 z m 1.34467,-7.63296 -16.76879,-1.77971 h 17.08518 z m 0.67233,-3.79671 -16.76878,-1.7797 h 17.08517 z m 0.67234,-3.7967 -16.76879,-1.77971 h 17.08518 z m 0.67233,-3.79671 -16.76879,-1.77971 h 17.04563 z m -2.68933,15.18682 -16.76879,-1.7797 h 17.08518 z"
         style="font-style:normal;font-variant:normal;font-weight:normal;font-stretch:normal;font-size:39.54902267px;font-family:'Faster One';-inkscape-font-specification:'Faster One, Normal';font-variant-ligatures:normal;font-variant-caps:normal;font-variant-numeric:normal;font-feature-settings:normal;text-align:start;writing-mode:lr-tb;text-anchor:start;stroke-width:0.9887256px"
         id="path7139" />
      <path
         d="m 173.80635,252.2639 q -4.034,1.58197 -8.22619,1.58197 -4.1922,0 -5.97191,-1.62151 -1.7797,-1.66106 -1.7797,-5.10183 0,-1.70061 0.55368,-4.86453 0.55369,-3.16392 1.70061,-5.41821 2.49159,-4.78544 10.085,-4.78544 4.42949,0 6.16965,0.87008 l -2.017,5.49732 q -2.49159,-0.55369 -4.50859,-0.55369 -1.97745,0 -2.80798,0.27684 -0.83053,0.27685 -0.98873,1.06783 l -1.66105,9.09627 h 1.81925 q 0.98873,0 1.50286,-0.19774 0.55369,-0.2373 0.67234,-0.98873 l 0.27684,-1.54241 h -1.62151 l 0.79098,-4.50859 h 7.9889 z m -16.92698,-8.42394 q -0.1582,1.22602 -0.19774,1.66106 l -15.58232,-1.66106 z m 0.75143,-3.7967 -0.35594,1.66106 -15.46367,-1.66106 z m -0.98872,7.59341 q 0,0.63278 0.15819,1.66106 l -15.54276,-1.66106 z m 2.37294,-11.39012 q -0.47459,1.02827 -0.67234,1.58196 l -14.94953,-1.58196 z m -1.54241,15.22637 q 0.47458,0.94918 1.02827,1.46332 l -13.80261,-1.46332 z m 4.98317,-19.02308 q -0.94917,0.55369 -1.62151,1.30512 l -12.14155,-1.30512 z"
         style="font-style:normal;font-variant:normal;font-weight:normal;font-stretch:normal;font-size:39.54902267px;font-family:'Faster One';-inkscape-font-specification:'Faster One, Normal';font-variant-ligatures:normal;font-variant-caps:normal;font-variant-numeric:normal;font-feature-settings:normal;text-align:start;writing-mode:lr-tb;text-anchor:start;stroke-width:0.9887256px"
         id="path7141" />
    </g>
    <path
       style="display:inline;fill:#000000;stroke-width:0.03751813"
       d="m 46.861609,210.67114 c -1.003779,-0.75812 -4.720293,-4.44812 -7.967955,-7.91105 -3.029393,-3.23024 -5.970475,-6.52084 -7.561613,-8.46017 -0.630347,-0.7683 -1.221692,-1.53938 -1.208625,-1.57604 0.0058,-0.018 0.230579,-0.26393 0.49812,-0.54656 1.073359,-1.13363 2.612601,-2.48709 3.779762,-3.32358 0.505736,-0.36244 0.771168,-0.50141 0.897264,-0.46977 0.294011,0.0739 2.234887,2.04017 5.228202,5.2969 0.512078,0.55717 0.942818,1.01775 0.95717,1.02356 0.01408,0.007 0.438204,-0.35596 0.941803,-0.80391 1.172977,-1.04329 5.151492,-4.55897 7.423811,-6.56019 1.126521,-0.99212 2.17912,-1.92039 4.467102,-3.93942 0.771647,-0.68094 1.556505,-1.37316 1.744117,-1.53823 0.187659,-0.16503 0.980727,-0.86573 1.762472,-1.55701 2.723178,-2.408 4.065573,-3.58895 6.134385,-5.39666 1.145223,-1.00073 2.117309,-1.85054 2.160124,-1.88857 0.07644,-0.0679 0.08307,-0.0656 0.38394,0.12819 0.168432,0.10855 0.983,0.60255 1.810327,1.0978 l 1.504283,0.90041 -0.02117,0.95672 c -0.01208,0.52619 -0.03305,1.50542 -0.04723,2.17606 l -0.02606,1.21935 -2.37912,2.17605 c -1.308489,1.19683 -2.753853,2.53903 -3.211917,2.98269 -1.097436,1.0629 -1.812511,1.67939 -7.207669,6.21378 -3.896949,3.2752 -4.896128,4.11718 -6.559541,5.52735 -0.987137,0.83683 -1.997832,1.69363 -2.24602,1.90396 -1.173656,0.99475 -1.587335,1.096 -2.810358,0.68797 -0.761512,-0.25407 -1.191514,-0.54114 -2.078202,-1.38739 -0.663907,-0.63363 -0.903961,-0.82347 -1.076723,-0.85151 -0.112961,-0.018 -0.142795,-0.004 -0.266247,0.1332 -0.167032,0.18485 -0.181662,0.34153 -0.05528,0.59434 0.20953,0.41957 1.192827,1.43851 1.813066,1.87882 0.691593,0.49097 1.194686,0.71222 2.153762,0.94731 0.843,0.20661 0.951239,0.26861 1.597863,0.91484 0.977346,0.97677 3.690186,4.05105 4.324902,4.9011 0.08613,0.11537 0.15662,0.24083 0.15662,0.27882 0,0.13037 -3.070963,3.12694 -3.939381,3.84412 -0.287851,0.23768 -0.776993,0.56343 -0.846115,0.56343 -0.02663,0 -0.130177,-0.0615 -0.229679,-0.13681 z m 93.034001,-2.11186 c -0.0628,-0.11736 -0.0447,-0.60576 0.0343,-0.91372 0.25103,-0.98146 1.20507,-2.26712 2.19807,-2.96211 0.38662,-0.27061 0.44823,-0.33748 0.39767,-0.43196 -0.0599,-0.11176 -0.3372,-0.34848 -0.47678,-0.40679 -0.11336,-0.0472 -0.14661,-0.0448 -0.33297,0.0248 -0.11395,0.0426 -0.31064,0.14661 -0.43721,0.23118 -0.32132,0.21455 -0.86892,0.74383 -1.12317,1.08553 -0.44883,0.60327 -1.03534,1.72337 -1.14646,2.18945 -0.0714,0.2999 -0.0978,0.36445 -0.15563,0.3838 -0.0745,0.0248 -1.33522,-1.10642 -7.09824,-6.36868 -1.88698,-1.72301 -3.65294,-3.33535 -3.92427,-3.58297 -2.35653,-2.1503 -3.80673,-3.4711 -6.50787,-5.92736 -3.61227,-3.28478 -4.63084,-4.21753 -5.57046,-5.10124 -1.28532,-1.20884 -2.67948,-2.54077 -2.69089,-2.5708 -0.006,-0.016 -0.0873,-0.0933 -0.18024,-0.17043 -0.0929,-0.0771 -1.22824,-1.14547 -2.52308,-2.37394 l -2.35429,-2.2336 v -2.15131 -2.15134 l 1.54764,-0.77204 c 0.85118,-0.42463 1.58472,-0.80654 1.63002,-0.84867 l 0.0823,-0.0767 0.19887,0.1454 c 0.45185,0.33014 2.02109,1.66843 4.45731,3.80134 5.39977,4.72749 8.51498,7.46829 10.30045,9.06248 0.39302,0.35087 0.8995,0.80053 1.12553,0.99919 5.09002,4.47334 6.34724,5.58263 9.60293,8.47314 4.97067,4.4131 6.74488,6.0248 8.41283,7.64236 l 0.49649,0.48151 -0.23384,0.47216 c -0.12859,0.2597 -0.33385,0.60582 -0.45597,0.76913 -0.66023,0.88287 -1.79041,1.98317 -2.6074,2.53849 -0.65904,0.44793 -1.7341,0.81619 -2.38264,0.81619 -0.20297,0 -0.25067,-0.012 -0.28297,-0.0726 z M 88.753145,200.5601 c -0.215385,-0.39334 -0.637485,-1.33908 -2.115872,-4.74069 -1.645296,-3.78556 -3.094415,-7.09712 -3.291875,-7.52245 -0.194873,-0.4199 -0.223116,-0.44789 -1.272698,-1.26333 -2.480154,-1.92687 -6.183216,-4.62649 -6.347366,-4.6274 -0.08737,0 -2.924613,-2.1896 -3.333395,-2.57193 -0.130992,-0.12257 -0.526296,-0.44651 -0.878469,-0.72001 l -0.64031,-0.49729 -0.0251,-1.8101 c -0.02462,-1.7709 -0.07568,-2.81922 -0.141597,-2.90188 -0.01801,-0.0227 -0.163842,-0.11015 -0.323767,-0.19426 -0.160021,-0.084 -0.929196,-0.50451 -1.709435,-0.93416 l -1.418635,-0.78115 0.0019,-1.46321 c 0.0019,-0.80476 0.01208,-2.76322 0.02548,-4.3521 l 0.02337,-2.88891 1.178993,-1.18465 1.179002,-1.18471 -0.0039,-0.62169 -0.0039,-0.62168 -1.523224,-1.85165 c -4.910183,-5.96889 -6.254513,-7.60357 -6.606619,-8.03335 -0.271649,-0.3316 -0.393713,-0.51054 -0.396721,-0.58153 -0.0019,-0.0602 -0.1534,-0.33545 -0.365986,-0.66718 -1.468511,-2.29256 -1.955057,-3.75862 -2.315296,-6.97653 -0.04167,-0.37142 -0.09466,-0.89481 -0.117973,-1.16305 -0.02327,-0.26825 -0.06112,-0.52652 -0.08373,-0.57388 -0.03142,-0.0655 -0.0076,-0.53498 0.100153,-1.95095 0.185658,-2.44762 0.168222,-2.29049 0.250181,-2.26909 0.122983,0.032 0.240016,-0.19567 0.598589,-1.16522 0.536814,-1.45156 1.384586,-2.98117 2.134801,-3.85185 1.111614,-1.2901 4.438928,-4.72728 4.576156,-4.72728 0.08929,0 0.456742,0.70941 1.428551,2.75758 0.711789,1.50019 0.86838,1.78883 1.251889,2.30738 0.742053,1.00336 2.901563,2.85136 3.33196,2.85136 0.177245,0 0.248168,-0.19708 0.816176,-2.27012 1.009364,-3.68361 2.694523,-7.4046 4.199591,-9.2731 0.718975,-0.89258 2.091853,-2.35996 2.509182,-2.68192 0.190275,-0.14681 0.199885,-0.14981 0.338032,-0.10455 0.253199,0.0829 1.776576,0.71808 4.250424,1.77218 2.957178,1.26003 3.472168,1.47726 4.158243,1.75395 l 0.537734,0.21686 0.250152,-0.0862 c 0.48648,-0.16724 2.265402,-0.89879 4.567438,-1.8781 1.972589,-0.83918 3.831775,-1.61241 4.111865,-1.71017 l 0.244097,-0.0852 0.174448,0.10216 c 0.535387,0.31375 2.411106,2.37197 3.082546,3.38244 1.56737,2.3589 3.1488,6.18748 3.99826,9.67968 0.0854,0.35079 0.20657,0.76213 0.2694,0.91406 l 0.11417,0.27623 0.143,-0.02 c 0.36965,-0.0496 1.46077,-0.88437 2.50334,-1.91522 0.53399,-0.52799 0.82436,-0.86541 1.0098,-1.17337 0.22324,-0.3707 0.72654,-1.361 1.33311,-2.62293 0.59509,-1.23798 1.02493,-2.04504 1.10319,-2.07111 0.0713,-0.0238 0.66469,0.53702 2.03847,1.92663 1.31146,1.32658 2.26671,2.33758 2.8431,3.00896 0.62166,0.72413 1.42477,2.24954 1.95893,3.72068 0.21404,0.58952 0.30975,0.8027 0.41272,0.91919 0.0465,0.0524 0.0741,0.17063 0.0921,0.39393 0.0142,0.17544 0.10115,1.07865 0.19308,2.00722 0.0918,0.92856 0.16784,1.72207 0.16843,1.76335 0,0.0411 -0.0338,0.39581 -0.0765,0.78787 -0.26743,2.45417 -0.50379,3.90013 -0.76469,4.678 -0.39829,1.18768 -1.36181,3.00923 -1.98082,3.74482 -0.21252,0.25255 -8.23767,10.36928 -8.48479,10.69619 -0.10074,0.13319 -0.10194,0.1422 -0.10194,0.7115 v 0.57662 l 1.17978,1.18318 1.17977,1.18317 0.0256,4.3146 c 0.0159,2.58397 0.0399,4.33238 0.061,4.35896 0.0237,0.0303 0.008,0.0619 -0.052,0.0993 -0.27248,0.17184 -3.27644,1.91027 -3.34833,1.93759 -0.0474,0.018 -0.0975,0.0623 -0.11155,0.0985 -0.0552,0.1432 -0.0946,1.05308 -0.12017,2.74653 l -0.0267,1.77483 -0.56582,0.43746 c -0.3112,0.24063 -0.69265,0.55731 -0.84766,0.70376 -0.28845,0.27246 -2.81403,2.15647 -3.93512,2.93546 -1.84264,1.28037 -6.262282,4.59807 -6.783711,5.09235 -0.234756,0.22252 0.08872,-0.49296 -3.774484,8.34776 -1.5121,3.46031 -1.945246,4.44034 -1.979256,4.47809 -0.01591,0.018 -0.05087,-0.008 -0.07731,-0.0563 z m 0.595129,-28.09737 c 0.769961,-0.17064 2.87219,-0.69721 3.535388,-0.8857 l 0.581976,-0.16543 0.257241,-0.25211 c 0.546941,-0.53603 1.33727,-1.56164 1.33727,-1.73539 0,-0.0827 -0.493714,-1.05314 -1.058683,-2.08096 l -0.391807,-0.71284 h -4.813163 -4.813192 l -0.412147,0.75035 c -0.551375,1.00377 -1.04206,1.96582 -1.04206,2.04299 0,0.12338 0.677741,1.04716 1.231416,1.6785 0.11597,0.13218 0.26229,0.25575 0.3397,0.2867 0.353417,0.1414 4.379988,1.18065 4.591512,1.1851 0.0776,0.002 0.372971,-0.0485 0.656549,-0.11114 z m -1.701781,-4.47817 c -0.03162,-0.0825 0.0076,-0.12678 0.250114,-0.28362 0.295888,-0.19128 0.804688,-0.35508 1.02539,-0.33018 0.261773,0.0294 1.073188,0.47912 1.073188,0.59464 0,0.0549 -0.226603,0.0401 -0.619052,-0.0406 -0.456358,-0.094 -0.769998,-0.095 -1.138036,-0.004 -0.47458,0.11756 -0.567107,0.12757 -0.591604,0.0637 z m -6.563123,-0.63423 c 0.08076,-0.12338 0.111764,-0.31664 0.281833,-1.7604 0.164829,-1.39878 0.280493,-2.15756 0.357164,-2.34148 0.04646,-0.11135 0.07157,-0.12317 0.456014,-0.21435 0.517749,-0.12278 1.492278,-0.30609 2.920695,-0.54921 2.066169,-0.35159 3.37075,-0.60097 3.424362,-0.6546 0.06256,-0.0626 -0.484688,-0.46323 -1.360847,-0.99555 -0.247614,-0.15042 -0.616398,-0.38383 -0.819501,-0.51861 -0.356071,-0.23632 -0.368479,-0.24919 -0.347709,-0.36082 0.01198,-0.0637 0.233349,-0.53786 0.492209,-1.05371 0.258822,-0.51589 0.470154,-0.95907 0.469647,-0.98488 0,-0.0257 -0.02213,-0.047 -0.0479,-0.0472 -0.02587,0 -0.190458,-0.016 -0.365825,-0.0359 -0.175434,-0.0199 -0.816943,-0.0703 -1.425647,-0.11276 -2.887462,-0.2015 -4.558442,-0.41093 -7.033748,-0.88152 -0.767489,-0.14581 -1.071146,-0.17202 -1.158309,-0.0997 -0.0776,0.0643 -0.148811,0.38959 -0.117963,0.53768 0.06094,0.29159 0.297662,0.57539 0.883651,1.05888 0.408438,0.33701 0.785597,0.69186 0.785597,0.73917 0,0.0504 -0.06706,0.0407 -0.440724,-0.0652 -0.20226,-0.0572 -0.385493,-0.0885 -0.43947,-0.0748 -0.176651,0.0443 -0.188664,0.18044 -0.188864,2.14225 0,1.78708 0,1.80216 0.08355,1.96969 0.232314,0.46917 3.341885,4.38962 3.481652,4.38962 0.02941,0 0.07904,-0.0391 0.110145,-0.0867 z m 15.993485,-0.39174 c 0.977461,-1.14169 2.964065,-3.73703 3.060465,-3.99822 0.0314,-0.0854 0.0441,-0.63427 0.0441,-1.92024 0,-1.91211 -0.0121,-2.05112 -0.17525,-2.10304 -0.04235,-0.0141 -0.252253,0.0223 -0.467053,0.0791 -0.214686,0.057 -0.402509,0.0914 -0.417416,0.0763 -0.03477,-0.0348 0.384699,-0.43514 0.910209,-0.86843 0.64569,-0.53234 0.80911,-0.80517 0.73055,-1.21947 -0.0204,-0.10814 -0.0563,-0.21944 -0.0792,-0.24728 -0.0747,-0.0902 -0.44596,-0.0561 -1.464009,0.1342 -2.854572,0.53357 -5.982327,0.85823 -9.036352,0.93796 -0.799008,0.0209 -1.175113,0.0445 -1.246389,0.0782 -0.17305,0.0817 -0.198285,0.23056 -0.195277,1.14397 0.0039,0.95847 0.05106,1.35354 0.176048,1.45824 0.103745,0.0867 0.35246,0.0702 1.040394,-0.0702 0.558792,-0.11377 0.942484,-0.15362 1.026887,-0.10636 0.05518,0.0308 0.0502,0.0463 -0.04139,0.1334 -0.0571,0.0543 -0.390743,0.2788 -0.741556,0.49905 -0.886266,0.55645 -1.201208,0.7988 -1.130248,0.86974 0.04781,0.0479 1.44592,0.31338 3.418853,0.6491 1.428398,0.24311 2.402967,0.42634 2.920678,0.5492 0.384621,0.0914 0.409635,0.10294 0.456042,0.21435 0.07492,0.17965 0.192468,0.93777 0.33829,2.1809 0.208573,1.77766 0.255938,2.00761 0.413496,2.00761 0.02682,0 0.232956,-0.21527 0.458189,-0.47838 z M 90.25783,150.36587 c 2.120556,-0.0818 2.815761,-0.13901 3.895445,-0.32119 2.787625,-0.47028 5.490263,-1.29282 7.412495,-2.25594 0.49729,-0.24916 1.14042,-0.6203 1.3638,-0.787 l 0.12196,-0.091 -0.002,-0.75783 c -0.002,-0.94802 -0.0643,-2.89799 -0.0966,-3.04073 -0.022,-0.0964 -0.0359,-0.10454 -0.1412,-0.0843 -0.0643,0.0121 -0.53894,0.2325 -1.0548,0.48905 -1.23104,0.61227 -1.73054,0.82826 -2.738829,1.18443 -1.961467,0.6928 -4.593507,1.27515 -6.790793,1.50246 -0.598971,0.0619 -5.110143,0.0912 -6.104418,0.0395 -2.068449,-0.10755 -4.689279,-0.61034 -6.895589,-1.32301 -1.244149,-0.40187 -2.014234,-0.71987 -3.357885,-1.3866 -0.536507,-0.26622 -1.028044,-0.49401 -1.092318,-0.50618 -0.104752,-0.02 -0.119774,-0.0102 -0.144605,0.0847 -0.01591,0.0587 -0.03593,0.94526 -0.04609,1.96997 l -0.01801,1.86311 0.219227,0.14062 c 1.726259,1.10698 4.625216,2.17658 7.403968,2.7317 1.10671,0.22112 2.057097,0.35259 4.051949,0.56046 0.294999,0.0308 3.123435,0.0223 4.014434,-0.012 z m 46.20355,-3.81478 c -1.49867,-1.23617 -2.12857,-1.8249 -4.9899,-4.66381 -2.2437,-2.22605 -2.75952,-2.71474 -3.43499,-3.25429 -1.13533,-0.90681 -1.86525,-1.17223 -3.22449,-1.17246 -0.83281,0 -1.39236,0.12858 -2.20241,0.50682 -0.45827,0.21394 -0.99711,0.51747 -1.23824,0.69745 -0.10757,0.0803 -0.23489,0.14582 -0.28317,0.14582 -0.10914,0 -0.27787,-0.17405 -0.59981,-0.61904 -0.5673,-0.78407 -0.84516,-1.30201 -0.87839,-1.63755 -0.018,-0.18625 -0.0102,-0.21732 0.12718,-0.42597 0.39259,-0.60047 1.30074,-1.60492 2.6971,-2.98304 1.20836,-1.19256 1.82973,-1.74511 3.18431,-2.83164 1.23197,-0.98812 2.45469,-2.00102 3.58299,-2.96809 1.44104,-1.23515 1.43192,-1.24322 -0.20637,-0.18225 -1.78148,1.15361 -3.26452,2.00871 -4.93361,2.84462 -1.21611,0.60904 -1.9059,0.90385 -2.77947,1.18788 -0.86278,0.28049 -0.95212,0.33046 -1.03286,0.57754 -0.14841,0.45391 -0.88953,2.10739 -0.94101,2.09938 -0.0339,-0.007 -0.75342,-1.35444 -0.94808,-1.77751 -0.18304,-0.39767 -0.19206,-0.62493 -0.0445,-1.1074 0.20171,-0.65911 0.25577,-1.16423 0.19287,-1.80302 -0.0753,-0.76526 -0.26679,-1.40955 -0.64282,-2.16302 -0.24566,-0.49228 -0.33714,-0.63079 -1.23297,-1.86742 -0.42606,-0.58808 -1.19421,-1.65172 -1.70707,-2.36363 -2.50934,-3.48334 -3.07745,-4.26943 -3.18152,-4.40234 l -0.11275,-0.144 1.08806,-1.09407 c 4.51839,-4.54348 11.63155,-11.64985 12.7807,-12.76849 3.66105,-3.56377 4.37585,-4.08679 7.05922,-5.165102 2.93297,-1.178655 5.07133,-1.765784 7.59742,-2.086045 3.78286,-0.479609 8.84625,-0.302637 12.35209,0.431699 2.2812,0.477828 4.9106,1.43613 5.81631,2.119779 0.42087,0.317718 0.72672,0.782149 1.09965,1.669759 1.42875,3.40072 2.04162,8.85512 1.59046,14.15395 -0.12638,1.48444 -0.33102,2.92861 -0.59894,4.22715 -0.43566,2.1118 -1.4022,4.77766 -2.60486,7.18473 -0.50099,1.00263 -0.7326,1.41081 -1.21357,2.13853 -0.56338,0.85244 -0.53904,0.82936 -10.64461,10.0926 -2.37303,2.17524 -4.82952,4.42781 -5.45888,5.00572 -0.62936,0.57791 -1.55794,1.42988 -2.0635,1.89325 -0.50555,0.46339 -0.98673,0.90551 -1.06924,0.98251 l -0.15,0.14 z m -6.85902,-11.03298 c 0.15681,-0.777 1.00881,-2.28058 2.1605,-3.8126 2.06907,-2.75235 5.71081,-6.94463 9.29242,-10.6972 2.30489,-2.41493 3.60381,-3.82307 3.60381,-3.90685 0,-0.0825 -0.0526,-0.0621 -0.34388,0.13358 -0.97377,0.65412 -4.29844,3.90997 -6.78396,6.64346 -1.12942,1.2421 -4.18735,4.75972 -5.46303,6.28428 -0.33173,0.39646 -1.18563,1.46244 -3.19484,3.98833 -0.31687,0.39835 -0.58369,0.74444 -0.59299,0.76913 -0.0548,0.14579 0.352,0.48357 0.89182,0.74067 0.33113,0.15762 0.37228,0.144 0.43015,-0.1428 z m -6.86582,-8.75463 c 2.46359,-1.14034 4.19461,-2.02957 6.20389,-3.18698 4.28308,-2.46715 8.29392,-5.44949 10.98068,-8.16487 0.93377,-0.94372 1.51883,-1.66817 1.42387,-1.76312 -0.016,-0.016 -0.0999,0.009 -0.18645,0.0545 -0.16623,0.0881 -0.37871,0.25626 -1.81514,1.43583 -2.32125,1.9061 -5.26936,4.10062 -7.81563,5.81777 -3.10489,2.09386 -5.74165,3.51467 -7.67246,4.1343 -0.50095,0.16083 -1.18898,0.33363 -1.66871,0.41928 -0.39742,0.0708 -0.53958,0.13037 -0.60776,0.25392 -0.0532,0.0966 -0.0659,0.77646 -0.0199,1.04747 0.0395,0.23063 0.15621,0.38163 0.27245,0.35246 0.0474,-0.012 0.45459,-0.19225 0.90488,-0.40057 z M 18.952493,144.82294 c 0.09618,-0.68173 0.865812,-2.84148 1.608938,-4.51467 0.303639,-0.68366 1.150769,-2.37949 1.583675,-3.17025 2.593575,-4.73776 6.062361,-9.37275 12.218235,-16.32612 0.387946,-0.43814 0.705322,-0.81247 0.705322,-0.83179 0,-0.0199 -0.0821,-0.16744 -0.182265,-0.32907 -0.451033,-0.7272 -0.470087,-0.8352 -0.23376,-1.32328 0.265509,-0.54842 0.279093,-0.51984 -0.734389,-1.54685 l -0.617423,-0.62563 0.571131,-0.85634 c 0.850081,-1.27458 1.231445,-1.77583 2.007317,-2.63842 0.871664,-0.96905 1.694135,-1.70267 2.709591,-2.41684 0.686565,-0.48286 1.138344,-0.74258 2.199997,-1.26469 l 0.974128,-0.47908 0.580691,0.57021 c 0.319351,0.31361 0.578259,0.57865 0.575318,0.58895 -0.0019,0.0102 -0.331173,0.19349 -0.729418,0.40717 -1.386578,0.74377 -2.15767,1.24863 -2.848123,1.86466 -0.427159,0.38112 -0.577589,0.57447 -0.545016,0.70038 0.01198,0.047 0.137794,0.21155 0.279391,0.36554 l 0.257261,0.28002 0.484515,-0.44644 c 0.794984,-0.73253 1.398794,-1.13722 2.464011,-1.6515 1.157543,-0.55883 1.629115,-0.66183 2.32796,-0.50849 0.584076,0.12818 0.698014,0.0775 1.660788,-0.73868 2.312757,-1.96061 3.604414,-2.98118 5.37205,-4.24465 3.75998,-2.68753 8.115193,-5.16378 12.446553,-7.07674 2.763999,-1.220722 8.134891,-3.170632 8.733306,-3.170632 0.06946,0 0.05786,0.0233 -0.08689,0.172851 -0.204474,0.211367 -1.358356,1.205061 -2.568408,2.211883 -5.636879,4.690218 -10.386123,8.956728 -14.090699,12.658578 -1.640965,1.63974 -2.073824,2.09763 -3.652516,3.86392 l -0.853444,0.95485 -0.831571,0.19906 c -0.982616,0.23524 -1.416567,0.36512 -2.052029,0.61409 -1.126713,0.44145 -2.145025,1.05299 -3.04706,1.82989 -0.510152,0.43938 -0.607976,0.61998 -0.479495,0.88533 0.08114,0.16763 0.375366,0.47101 0.456866,0.47101 0.02462,0 0.199875,-0.15781 0.389508,-0.35088 0.392122,-0.39921 0.868944,-0.73359 1.51826,-1.06474 1.275074,-0.65029 2.495032,-1.03942 3.264054,-1.04112 0.294834,0 0.335522,0.009 0.539056,0.12658 1.434251,0.8288 3.600371,3.3106 4.090548,4.68671 0.22826,0.64085 0.09388,0.80317 -0.968992,1.17017 -1.319602,0.45563 -2.148291,1.055 -2.997309,2.1679 l -0.293416,0.38464 0.112349,0.13998 c 0.139,0.17306 0.554585,0.57669 0.67981,0.65992 0.14561,0.0968 0.258428,0.0803 0.283423,-0.0413 0.08881,-0.43197 0.198677,-0.60125 0.701385,-1.07924 0.724292,-0.68867 1.818699,-1.3221 2.452093,-1.41922 0.127773,-0.02 0.180858,-0.007 0.321784,0.0835 0.81861,0.51913 4.86439,4.35693 5.248848,4.97898 0.04464,0.0724 0.06399,0.14702 0.04857,0.18927 -0.05193,0.14321 -0.353534,0.57998 -0.584123,0.84577 -1.488217,1.71521 -2.473016,3.62352 -3.123462,6.05243 -0.236567,0.8835 -0.363774,1.29436 -0.400669,1.29436 -0.0457,0 -0.883669,-0.6397 -1.663862,-1.26995 -1.368195,-1.10528 -2.930898,-2.4248 -4.783579,-4.03908 -1.56461,-1.36329 -1.997832,-1.70761 -2.21792,-1.76286 -0.06898,-0.018 -0.128981,0.007 -0.234239,0.0892 -0.208095,0.16544 -0.367454,0.20867 -0.57527,0.15642 -0.510478,-0.12858 -1.185948,-0.6564 -2.87037,-2.24306 -1.204294,-1.13443 -2.409719,-2.43467 -3.155431,-3.40366 -0.517079,-0.67192 -0.614214,-0.7712 -0.753129,-0.76968 -0.11916,0.002 -0.521869,0.25572 -0.597515,0.37748 -0.06189,0.0993 -0.0039,0.22881 0.296568,0.65677 0.157624,0.22489 0.293617,0.42689 0.302163,0.44881 0.0076,0.0221 -0.512088,0.51156 -1.157072,1.08802 -7.748296,6.92571 -15.222375,13.73921 -18.84639,17.18075 -1.038334,0.98603 -1.541244,1.4071 -1.680666,1.4071 -0.02003,0 -0.02357,-0.0769 -0.01008,-0.17824 z m 6.379632,-7.88244 c 1.393478,-1.34052 13.413332,-13.31674 13.413332,-13.36468 0,-0.0355 -1.696695,-1.61061 -2.17095,-2.01557 -0.43805,-0.37403 -0.512432,-0.41711 -0.588624,-0.34093 -0.118164,0.11817 0.09178,0.5084 0.861319,1.60124 0.280531,0.39832 0.510075,0.73379 0.510075,0.74546 0,0.0121 -1.31281,1.3403 -2.917361,2.95253 -3.359971,3.3761 -4.840247,4.91464 -6.575693,6.83458 -1.78717,1.97718 -3.148879,3.63944 -3.902104,4.76344 -0.19106,0.28527 -0.194662,0.29485 -0.07195,0.19327 0.07109,-0.0587 0.719942,-0.67497 1.441828,-1.36941 z m 23.79406,-9.46032 c 0.127582,-0.38173 0.243916,-0.75963 0.258343,-0.83974 l 0.02624,-0.14561 -0.220836,0.0265 c -0.175233,0.0211 -0.978007,0.17665 -1.965452,0.38123 -0.09973,0.0207 -0.14719,-0.0253 -2.212985,-2.14245 -0.40271,-0.41269 -1.063704,-1.08803 -1.468933,-1.50073 l -0.736774,-0.75034 -0.01408,-1.03189 c -0.01408,-0.95563 -0.02003,-1.04159 -0.09054,-1.16307 -0.07089,-0.12157 -0.0913,-0.13198 -0.280877,-0.14179 -0.174649,-0.0102 -0.347822,0.0381 -1.190364,0.32501 l -0.98592,0.33569 -0.552345,-0.56844 c -1.240555,-1.2768 -1.693924,-1.74541 -1.932973,-1.99801 l -0.251369,-0.26566 -0.0019,-0.9912 -0.0019,-0.99122 -0.478891,0.48773 c -0.564654,0.57506 -0.664146,0.74154 -0.661445,1.10677 0.0019,0.18926 0.02406,0.28595 0.10114,0.43146 0.318047,0.60052 0.610391,0.91101 3.275177,3.47822 l 0.226631,0.21834 0.763457,-0.11416 c 0.419895,-0.0626 0.771407,-0.10615 0.781111,-0.0964 0.01,0.0102 0.03305,0.16624 0.05193,0.34807 0.08334,0.80379 0.145401,0.88156 3.556254,4.44817 l 1.785111,1.86667 0.994236,-0.0102 0.994217,-0.0102 z m -4.890074,-10.55484 c 0.16824,-0.10994 0.508485,-0.34804 0.756098,-0.52919 1.159525,-0.8483 2.852771,-1.69595 3.940185,-1.97248 0.23535,-0.0599 0.474964,-0.13799 0.532474,-0.17344 0.212837,-0.13158 0.440293,-0.38328 0.791086,-0.87513 0.707431,-0.99192 1.459399,-1.88187 2.536132,-3.00158 2.940679,-3.05807 7.297445,-6.64175 11.859633,-9.75516 0.743539,-0.5074 1.53607,-1.069419 1.744577,-1.237121 0.31339,-0.252031 -0.487629,0.100947 -1.481971,0.653081 -1.180574,0.65554 -3.122313,1.83187 -4.328906,2.62249 -2.427165,1.59042 -5.272349,3.83913 -7.600951,6.00754 -1.304811,1.21502 -2.029332,1.96086 -3.281059,3.37758 -0.400869,0.45375 -0.742417,0.82091 -0.758905,0.8159 -0.01591,-0.004 -0.346933,-0.2665 -0.734284,-0.58111 -0.804574,-0.65347 -1.142453,-0.89175 -1.264469,-0.89175 -0.04685,0 -0.142593,0.0386 -0.212787,0.0856 -0.276269,0.18545 -0.186664,0.35812 0.764001,1.47063 l 0.544392,0.63706 -1.261948,0.62424 c -1.408365,0.69666 -2.220766,1.14705 -3.006554,1.66673 -0.509607,0.33702 -0.654231,0.46977 -0.622099,0.57099 0.06504,0.20529 0.559616,0.68502 0.70606,0.68502 0.04024,0 0.211036,-0.09 0.379295,-0.19988 z"
       id="path6455"
       inkscape:connector-curvature="0" />
    <g
       aria-label="King"
       style="font-style:normal;font-variant:normal;font-weight:normal;font-stretch:normal;font-size:40.80734634px;line-height:125%;font-family:'Faster One';-inkscape-font-specification:'Faster One, Normal';font-variant-ligatures:normal;font-variant-caps:normal;font-variant-numeric:normal;font-feature-settings:normal;text-align:start;letter-spacing:0px;word-spacing:0px;writing-mode:lr-tb;text-anchor:start;display:inline;fill:#000000;fill-opacity:1;stroke:none;stroke-width:1.02018356px;stroke-linecap:butt;stroke-linejoin:miter;stroke-opacity:1"
       id="text6487">
      <path
         d="m 56.50894,276.21902 0.04081,-0.77534 h -0.326459 l -1.917945,11.09959 h -7.753396 l 4.488808,-25.50459 h 7.753396 l -1.836331,10.40588 h 0.326459 q 0.326459,-1.30584 0.734532,-1.95876 l 5.141726,-8.44712 h 8.365506 l -7.99824,12.52786 3.713468,12.97673 h -8.365506 l -2.244404,-9.14084 q -0.122422,-0.40808 -0.122422,-1.18341 z m -11.181213,10.20183 -17.302314,-1.83633 h 17.628773 z m 1.38745,-7.87582 -17.302315,-1.83633 h 17.628774 z m 0.693725,-3.9175 -17.302315,-1.83633 h 17.628774 z m 0.693725,-3.91751 -17.302315,-1.83633 h 17.628774 z m 0.693725,-3.9175 -17.302315,-1.83633 h 17.587966 z m -2.7749,15.67002 -17.302315,-1.83633 h 17.628774 z m 3.427817,-19.58753 -17.261507,-1.83633 h 17.587966 z"
         style="font-style:normal;font-variant:normal;font-weight:normal;font-stretch:normal;font-size:40.80734634px;font-family:'Faster One';-inkscape-font-specification:'Faster One, Normal';font-variant-ligatures:normal;font-variant-caps:normal;font-variant-numeric:normal;font-feature-settings:normal;text-align:start;writing-mode:lr-tb;text-anchor:start;stroke-width:1.02018356px"
         id="path7122" />
      <path
         d="m 78.034177,286.54327 3.754276,-21.58708 h 7.182093 l -3.795083,21.58708 z m -1.346642,-0.12242 -17.302315,-1.83633 h 17.628773 z m 1.387449,-7.87582 -17.302314,-1.83633 h 17.628773 z m 0.693725,-3.9175 -17.302315,-1.83633 h 17.628774 z m 0.693725,-3.91751 -17.302315,-1.83633 h 17.628774 z m 0.693725,-3.9175 -17.302315,-1.83633 H 80.44181 Z m -2.7749,15.67002 -17.302314,-1.83633 h 17.628773 z"
         style="font-style:normal;font-variant:normal;font-weight:normal;font-stretch:normal;font-size:40.80734634px;font-family:'Faster One';-inkscape-font-specification:'Faster One, Normal';font-variant-ligatures:normal;font-variant-caps:normal;font-variant-numeric:normal;font-feature-settings:normal;text-align:start;writing-mode:lr-tb;text-anchor:start;stroke-width:1.02018356px"
         id="path7124" />
      <path
         d="m 110.60992,286.54327 -4.20316,-8.07985 h -0.16323 l -1.42826,8.07985 h -6.85563 l 3.75428,-21.58708 h 5.54979 l 4.24397,8.03904 h 0.24484 l 1.38745,-8.03904 h 6.81483 l -3.79508,21.58708 z m -13.996923,-0.12242 -17.302315,-1.83633 h 17.628774 z m 1.38745,-7.87582 -17.302315,-1.83633 h 17.628774 z m 0.693725,-3.9175 -17.302315,-1.83633 h 17.628774 z m 0.693725,-3.91751 -17.302315,-1.83633 h 17.628774 z m 0.693723,-3.9175 -17.302313,-1.83633 h 17.587963 z m -2.774898,15.67002 -17.302315,-1.83633 h 17.628774 z"
         style="font-style:normal;font-variant:normal;font-weight:normal;font-stretch:normal;font-size:40.80734634px;font-family:'Faster One';-inkscape-font-specification:'Faster One, Normal';font-variant-ligatures:normal;font-variant-caps:normal;font-variant-numeric:normal;font-feature-settings:normal;text-align:start;writing-mode:lr-tb;text-anchor:start;stroke-width:1.02018356px"
         id="path7126" />
      <path
         d="m 145.72591,285.40067 q -4.16235,1.63229 -8.48793,1.63229 -4.32557,0 -6.1619,-1.6731 -1.83634,-1.71391 -1.83634,-5.26415 0,-1.75471 0.57131,-5.0193 0.5713,-3.26459 1.75471,-5.59061 2.57087,-4.93769 10.40588,-4.93769 4.57042,0 6.36594,0.89777 l -2.08117,5.67222 q -2.57086,-0.57131 -4.65204,-0.57131 -2.04037,0 -2.89732,0.28566 -0.85696,0.28565 -1.02018,1.10179 l -1.71391,9.38569 h 1.87713 q 1.02019,0 1.55068,-0.20403 0.57131,-0.24485 0.69373,-1.02019 l 0.28565,-1.59148 h -1.6731 l 0.81615,-4.65204 h 8.24308 z m -17.46554,-8.69197 q -0.16323,1.26503 -0.20404,1.71391 l -16.07809,-1.71391 z m 0.77534,-3.9175 -0.36727,1.71391 -15.95567,-1.71391 z m -1.02019,7.83501 q 0,0.65292 0.16323,1.71391 l -16.03728,-1.71391 z m 2.44844,-11.75252 q -0.48968,1.06099 -0.69372,1.6323 l -15.42518,-1.6323 z m -1.59148,15.71083 q 0.48969,0.97938 1.06099,1.50987 l -14.24176,-1.50987 z m 5.14172,-19.62833 q -0.97937,0.5713 -1.6731,1.34664 l -12.52785,-1.34664 z"
         style="font-style:normal;font-variant:normal;font-weight:normal;font-stretch:normal;font-size:40.80734634px;font-family:'Faster One';-inkscape-font-specification:'Faster One, Normal';font-variant-ligatures:normal;font-variant-caps:normal;font-variant-numeric:normal;font-feature-settings:normal;text-align:start;writing-mode:lr-tb;text-anchor:start;stroke-width:1.02018356px"
         id="path7128" />
    </g>
    <g
       aria-label="The"
       style="font-style:normal;font-variant:normal;font-weight:normal;font-stretch:normal;font-size:31.41049385px;line-height:125%;font-family:'Faster One';-inkscape-font-specification:'Faster One, Normal';font-variant-ligatures:normal;font-variant-caps:normal;font-variant-numeric:normal;font-feature-settings:normal;text-align:start;letter-spacing:0px;word-spacing:0px;writing-mode:lr-tb;text-anchor:start;display:inline;fill:#000000;fill-opacity:1;stroke:none;stroke-width:0.78526247px;stroke-linecap:butt;stroke-linejoin:miter;stroke-opacity:1"
       id="text6495">
      <path
         d="m 80.422349,206.63417 h -4.334648 l -2.54425,14.60588 h -5.967994 l 2.54425,-14.60588 H 65.81647 l 0.910904,-5.02568 h 14.60588 z m -13.820617,14.51165 -13.318049,-1.41347 h 13.569333 z m 1.067957,-6.06223 -13.31805,-1.41347 h 13.569334 z m 0.533978,-3.0154 -13.318049,-1.41348 h 13.569333 z m 0.533979,-3.01541 -13.31805,-1.41347 H 68.98893 Z M 67.13571,218.099 53.817661,216.68553 H 67.386994 Z M 64.968386,206.03737 51.650337,204.6239 H 65.18826 Z m 0.502568,-3.01541 -13.286639,-1.41347 h 13.537923 z"
         style="font-style:normal;font-variant:normal;font-weight:normal;font-stretch:normal;font-size:31.41049385px;font-family:'Faster One';-inkscape-font-specification:'Faster One, Normal';font-variant-ligatures:normal;font-variant-caps:normal;font-variant-numeric:normal;font-feature-settings:normal;text-align:start;writing-mode:lr-tb;text-anchor:start;stroke-width:0.78526247px"
         id="path7115" />
      <path
         d="m 95.360003,221.24005 0.973725,-5.74812 h -3.517975 l -1.005136,5.74812 H 86.533654 L 89.42342,204.6239 h 5.308373 l -1.036546,5.74812 h 3.549386 l 1.005136,-5.74812 h 5.308371 l -2.92117,16.61615 z m -9.862895,-0.0942 -13.318049,-1.41347 h 13.569333 z m 1.067957,-6.06223 -13.31805,-1.41347 h 13.569334 z m 0.533978,-3.0154 -13.318049,-1.41348 h 13.569333 z m 0.533979,-3.01541 -13.31805,-1.41347 H 87.884306 Z M 88.167,206.03737 74.848951,204.6239 H 88.386874 Z M 86.031086,218.099 72.713037,216.68553 H 86.28237 Z"
         style="font-style:normal;font-variant:normal;font-weight:normal;font-stretch:normal;font-size:31.41049385px;font-family:'Faster One';-inkscape-font-specification:'Faster One, Normal';font-variant-ligatures:normal;font-variant-caps:normal;font-variant-numeric:normal;font-feature-settings:normal;text-align:start;writing-mode:lr-tb;text-anchor:start;stroke-width:0.78526247px"
         id="path7117" />
      <path
         d="m 121.91709,214.4868 h -4.68017 l -0.37692,2.13591 h 5.81094 l -0.81668,4.61734 h -11.0879 l 2.88977,-16.61615 h 11.05649 l -1.47629,4.71157 h -5.11991 l -0.37693,2.13592 h 4.71157 z m -12.18728,6.65902 -13.318045,-1.41347 H 109.9811 Z m 1.06796,-6.06223 -13.318048,-1.41347 h 13.569328 z m 0.53398,-3.0154 -13.31805,-1.41348 h 13.56933 z m 0.53398,-3.01541 -13.318052,-1.41347 h 13.569332 z m 0.53398,-3.01541 -13.318053,-1.41347 h 13.537923 z m -2.13592,12.06163 -13.318047,-1.41347 h 13.569337 z"
         style="font-style:normal;font-variant:normal;font-weight:normal;font-stretch:normal;font-size:31.41049385px;font-family:'Faster One';-inkscape-font-specification:'Faster One, Normal';font-variant-ligatures:normal;font-variant-caps:normal;font-variant-numeric:normal;font-feature-settings:normal;text-align:start;writing-mode:lr-tb;text-anchor:start;stroke-width:0.78526247px"
         id="path7119" />
    </g>
  </g>
</svg>
